<svg width="59" height="33" viewBox="0 0 59 33" fill="none" xmlns="http://www.w3.org/2000/svg">
<g clip-path="url(#clip0_1_13157)">
<path d="M57.0034 31.8693H57.2334V31.351L57.4972 31.3545C57.5661 31.3545 57.6814 31.4433 57.691 31.5617C57.6974 31.6451 57.6844 31.8652 57.7255 31.8652H57.9613C57.9206 31.851 57.9004 31.6492 57.8859 31.5019C57.8682 31.3081 57.7303 31.2559 57.6974 31.2415C57.7414 31.238 57.9422 31.1379 57.9422 30.9538C57.9422 30.7567 57.7749 30.5845 57.5581 30.5845V30.5859H57.0034V31.8693ZM57.2334 30.7818H57.5044C57.6172 30.7818 57.7069 30.8897 57.7069 30.9725C57.7069 31.0545 57.6359 31.1651 57.5044 31.1651V31.1655L57.2334 31.1642V30.7818Z" fill="black"/>
<path d="M56.3938 31.2304C56.3938 31.8203 56.8728 32.2995 57.4629 32.2995C58.0539 32.2995 58.5328 31.8203 58.5328 31.2304C58.5328 30.6396 58.0539 30.1608 57.4629 30.1608C56.8728 30.1608 56.3938 30.6396 56.3938 31.2304ZM58.4259 31.2304C58.4259 31.7615 57.9956 32.1927 57.4629 32.1927C56.9322 32.1927 56.5005 31.7615 56.5005 31.2304C56.5005 30.6982 56.9322 30.268 57.4629 30.268C57.9956 30.268 58.4259 30.6982 58.4259 31.2304Z" fill="black"/>
<path d="M31.8424 27.1747C32.0616 26.9174 32.1893 26.5703 32.1893 26.2084V24.8751H25.3696V26.3587H29.1352L25.8357 30.0085C25.6184 30.2671 25.4707 30.5825 25.4707 30.9504V32.3066H32.2854V30.8244H28.5449L31.8424 27.1747Z" fill="black"/>
<path d="M48.97 24.8752C48.1463 24.8752 47.4695 25.5406 47.4695 26.3629V30.8182C47.4695 31.6388 48.1463 32.3065 48.97 32.3065H54.2775C55.0993 32.3065 55.7564 31.6388 55.7564 30.8182V26.3629C55.7564 25.5406 55.0993 24.8752 54.2775 24.8752H48.97ZM52.1782 26.3586C52.5902 26.3586 52.9195 26.6913 52.9195 27.1031V30.0793C52.9195 30.4893 52.5882 30.8245 52.1772 30.8245H51.0561C50.6451 30.8245 50.3099 30.4893 50.3099 30.0793V27.1031C50.3099 26.6913 50.6451 26.3586 51.0561 26.3586H52.1782Z" fill="black"/>
<path d="M21.6497 24.8752H24.4911V30.82C24.4911 31.6408 23.8331 32.3065 23.0115 32.3065H21.6497V24.8752Z" fill="black"/>
<path d="M34.6681 32.3066C33.847 32.3066 33.1729 31.6387 33.1729 30.8181V24.8753H36.0129V30.0762C36.0129 30.4879 36.3545 30.8245 36.7637 30.8245H37.6757C38.0878 30.8245 38.41 30.4893 38.41 30.0791V24.8753H45.0115C45.8321 24.8753 46.4934 25.54 46.4934 26.3618V32.3066H43.653V27.0998C43.653 26.6882 43.3191 26.3587 42.9078 26.3587H41.2512V30.8181C41.2512 31.6387 40.5956 32.3066 39.7727 32.3066H34.6681Z" fill="black"/>
<path d="M17.4728 22.3192C16.4075 22.3192 15.456 22.8042 14.8261 23.5653L7.57812 32.3065H11.6908L17.1892 25.6798C17.6019 25.1884 18.2188 24.8752 18.9139 24.8752H20.3644L14.2278 32.3065H18.6387C19.6675 32.3065 20.4934 31.4731 20.4934 30.4454V22.3192H17.4728Z" fill="black"/>
<path d="M8.16125 23.5654L0.914795 32.3066H5.02457L10.5225 25.6797C10.9356 25.1885 11.5548 24.8753 12.2457 24.8753H13.742V22.3192H10.8061C9.74205 22.3192 8.78863 22.8042 8.16125 23.5654Z" fill="black"/>
<path fill-rule="evenodd" clip-rule="evenodd" d="M32.9975 22.3192C32.315 20.1289 31.3078 15.2227 35.6402 12.1814C38.736 10.0097 48.1312 7.44311 53.1648 5.59858L56.7832 0.693336C53.3316 2.46483 48.8533 4.27936 44.7688 5.53099C35.6644 8.32078 30.2188 9.97579 23.2042 10.1133C18.155 10.2126 18.0856 7.82994 22.9987 3.55694C17.4824 5.69792 9.7685 8.23488 0.914551 10.2165C8.81292 10.4386 14.8097 12.0443 18.4133 14.1374C23.5458 17.1184 24.7898 20.2491 25.3693 22.3192H32.9975ZM23.4901 13.2523C25.9523 13.3402 27.842 13.1467 31.2773 12.3961C29.6567 13.6043 28.2269 15.8045 28.0658 17.4866C27.2123 16.2092 25.2357 14.2248 23.4901 13.2523Z" fill="black"/>
</g>
<defs>
<clipPath id="clip0_1_13157">
<rect width="58.0049" height="32" fill="white" transform="translate(0.720947 0.5)"/>
</clipPath>
</defs>
</svg>
